<svg width="40" height="40" fill="none" xmlns="http://www.w3.org/2000/svg"><path d="M32.47 9.897a17.515 17.515 0 0 0-8.645-4.75V3.824a3.799 3.799 0 0 0-1.12-2.704A3.797 3.797 0 0 0 20 0a3.829 3.829 0 0 0-3.825 3.825v1.321a17.515 17.515 0 0 0-8.644 4.751 17.519 17.519 0 0 0-5.165 12.47c0 4.71 1.834 9.137 5.165 12.468A17.518 17.518 0 0 0 20 40a17.52 17.52 0 0 0 12.47-5.165 17.519 17.519 0 0 0 5.164-12.469c0-4.71-1.834-9.138-5.165-12.469ZM17.737 4.876V3.825A2.265 2.265 0 0 1 20 1.562a2.283 2.283 0 0 1 2.262 2.263v1.05a17.633 17.633 0 0 0-4.524 0ZM20 38.437c-8.862 0-16.071-7.21-16.071-16.07 0-8.165 6.118-14.926 14.01-15.94a16.403 16.403 0 0 1 4.122 0c7.892 1.014 14.01 7.776 14.01 15.94 0 8.86-7.21 16.07-16.071 16.07Z" fill="#fff"/><path d="M20 7.856c-8 0-14.51 6.51-14.51 14.51 0 2.569.684 5.096 1.979 7.308a.781.781 0 0 0 1.348-.79 12.91 12.91 0 0 1-1.74-5.737h.74a.781.781 0 0 0 0-1.562h-.74C7.482 14.808 13.123 9.418 20 9.418s12.518 5.39 12.923 12.167h-.74a.781.781 0 1 0 0 1.562h.74C32.518 29.924 26.877 35.314 20 35.314c-2.35 0-4.654-.64-6.662-1.85a.781.781 0 0 0-.806 1.338A14.469 14.469 0 0 0 20 36.876c8 0 14.51-6.509 14.51-14.51 0-8-6.51-14.51-14.51-14.51Z" fill="#fff"/><path d="M17.396 19.29a.791.791 0 0 0-.474.48l-2.49 7.17a.782.782 0 0 0 .994.994l7.17-2.49a.792.792 0 0 0 .482-.481l2.49-7.17a.781.781 0 0 0-.994-.995l-7.17 2.49c-.003 0-.005.002-.008.003Zm.593 2.17.906.906-.003.004a.781.781 0 1 0 1.104 1.105L20 23.47l.906.906-4.47 1.552 1.553-4.47Zm4.022 1.813-.906-.907.078-.078a.781.781 0 0 0-1.105-1.105L20 21.26l-.906-.906 4.47-1.552-1.553 4.47Zm-3.026-8.392v-1.67l2.247 2.225a.781.781 0 0 0 1.33-.552l.015-3.542a.781.781 0 0 0-.778-.785h-.003c-.43 0-.78.348-.781.779l-.007 1.68-2.254-2.232a.782.782 0 0 0-1.331.554v3.543a.781.781 0 0 0 1.562 0Zm3.592 14.881a.781.781 0 0 0-.781-.781h-3.068c-.72 0-1.305.585-1.305 1.305v.114c0 .496.288.956.734 1.173l1.982.964h-1.935a.781.781 0 1 0 0 1.563h3.054a1.306 1.306 0 0 0 .571-2.479l-2.217-1.078h2.184c.431 0 .781-.35.781-.781ZM20 4.066c.347 0 .66-.24.752-.574a.786.786 0 0 0-.335-.867c-.586-.369-1.354.186-1.171.862a.79.79 0 0 0 .754.579Zm-9.262 27.362c-.59-.393-1.375.176-1.185.857.09.321.38.555.713.572a.789.789 0 0 0 .768-.5.787.787 0 0 0-.296-.93Z" fill="#fff"/></svg>