<svg width="25" height="24" fill="none" xmlns="http://www.w3.org/2000/svg"><path fill-rule="evenodd" clip-rule="evenodd" d="M13.5 3A.75.75 0 0 0 12 3v12.19l-2.72-2.72a.75.75 0 1 0-1.06 1.06l4 4a.75.75 0 0 0 1.06 0l4-4a.75.75 0 0 0-1.06-1.06l-2.72 2.72V3ZM8.25 8.25h-.732c-.813 0-1.469 0-2 .043-.546.045-1.026.14-1.47.366a3.75 3.75 0 0 0-1.64 1.638c-.226.445-.32.925-.365 1.471C2 12.3 2 12.955 2 13.768v2.464c0 .813 0 1.469.043 2 .045.546.14 1.026.366 1.47a3.75 3.75 0 0 0 1.639 1.64c.444.226.924.32 1.47.365.531.043 1.187.043 2 .043h10.464c.813 0 1.469 0 2-.043.546-.045 1.026-.14 1.47-.366a3.75 3.75 0 0 0 1.64-1.639c.226-.444.32-.924.365-1.47.043-.531.043-1.187.043-2v-2.464c0-.813 0-1.469-.043-2-.045-.546-.14-1.026-.366-1.47a3.75 3.75 0 0 0-1.639-1.64c-.444-.226-.924-.32-1.47-.365-.531-.043-1.187-.043-2-.043H16.75a.75.75 0 0 0 0 1.5h1.2c.852 0 1.447 0 1.91.038.453.037.714.107.912.207.423.216.767.56.983.984.1.197.17.458.207.912.037.462.038 1.056.038 1.909v2.4c0 .852 0 1.447-.038 1.91-.038.453-.107.714-.207.912-.216.423-.56.767-.983.983-.198.1-.459.17-.913.207-.462.037-1.057.038-1.909.038H7.55c-.852 0-1.447 0-1.91-.038-.453-.038-.714-.107-.911-.207a2.25 2.25 0 0 1-.984-.983c-.1-.198-.17-.459-.207-.913-.037-.462-.038-1.057-.038-1.909v-2.4c0-.853 0-1.447.038-1.91.037-.453.107-.714.207-.912a2.25 2.25 0 0 1 .984-.983c.197-.1.458-.17.912-.207.462-.037 1.057-.038 1.909-.038h1.2a.75.75 0 1 0 0-1.5h-.5Z" fill="#8FA4B3"/></svg>