<svg width="52" height="52" fill="none" xmlns="http://www.w3.org/2000/svg"><path fill-rule="evenodd" clip-rule="evenodd" d="M29.337 7.504c-.321-.004-.696-.004-1.145-.004h-6.959c-1.836 0-3.154 0-4.187.085-1.022.084-1.679.244-2.21.514a5.5 5.5 0 0 0-2.403 2.404c-.27.53-.43 1.187-.514 2.209-.085 1.034-.086 2.351-.086 4.188v18.2c0 1.836.001 3.154.086 4.188.083 1.022.243 1.678.514 2.209a5.5 5.5 0 0 0 2.403 2.403c.531.27 1.188.431 2.21.514 1.033.085 2.35.086 4.187.086h9.534c1.836 0 3.154-.001 4.188-.086 1.022-.083 1.678-.243 2.209-.514a5.5 5.5 0 0 0 2.403-2.403c.27-.531.431-1.187.514-2.21.085-1.033.086-2.35.086-4.187V19.474c0-.448 0-.823-.005-1.144a.987.987 0 0 1-.079.003h-2.859c-1.177 0-2.121 0-2.885-.062-.784-.064-1.466-.199-2.094-.519a5.333 5.333 0 0 1-2.33-2.33c-.32-.629-.455-1.31-.52-2.094-.062-.764-.062-1.708-.062-2.885v-2.86c0-.026.001-.053.004-.079Zm1.996.212V10.4c0 1.23.001 2.092.056 2.765.054.66.155 1.05.308 1.348.32.628.83 1.137 1.456 1.457.3.152.688.254 1.349.308.672.055 1.535.055 2.765.055h2.684a5.494 5.494 0 0 0-.595-1.348c-.325-.531-.785-1-1.943-2.157l-2.574-2.575c-1.158-1.158-1.626-1.617-2.158-1.943a5.5 5.5 0 0 0-1.348-.594ZM28.323 5.5c1.465 0 2.371 0 3.235.207a7.5 7.5 0 0 1 2.168.898c.758.464 1.399 1.105 2.434 2.141l.093.093 2.575 2.574.092.093c1.036 1.035 1.677 1.676 2.142 2.434.41.671.714 1.403.898 2.168.207.864.207 1.77.207 3.235v15.801c0 1.783 0 3.182-.092 4.306-.094 1.146-.288 2.095-.726 2.955a7.5 7.5 0 0 1-3.277 3.277c-.86.438-1.809.632-2.955.726-1.124.092-2.523.092-4.306.092H21.19c-1.783 0-3.182 0-4.306-.092-1.146-.094-2.095-.288-2.955-.726a7.5 7.5 0 0 1-3.277-3.277c-.438-.86-.632-1.809-.726-2.955-.092-1.124-.092-2.523-.092-4.306V16.855c0-1.782 0-3.181.092-4.306.094-1.146.288-2.095.726-2.954a7.5 7.5 0 0 1 3.277-3.278c.86-.438 1.809-.632 2.955-.725C18.008 5.5 19.407 5.5 21.19 5.5h7.133ZM26 22.833a1 1 0 0 1 1 1V34.42l3.71-3.71a1 1 0 0 1 1.414 1.415l-5.417 5.416a1 1 0 0 1-1.414 0l-5.417-5.416a1 1 0 1 1 1.415-1.414L25 34.42V23.832a1 1 0 0 1 1-1Z" fill="#fff"/></svg>