<svg width="18" height="18" fill="none" xmlns="http://www.w3.org/2000/svg"><path fill-rule="evenodd" clip-rule="evenodd" d="M5.767 2.25h-.032c-.72 0-1.306 0-1.78.039-.492.04-.93.125-1.34.333a3.417 3.417 0 0 0-1.493 1.494C.914 4.524.83 4.963.79 5.454.75 5.93.75 6.515.75 7.235v3.53c0 .72 0 1.305.039 1.78.04.492.125.93.333 1.34.328.642.85 1.165 1.494 1.493.408.208.847.293 1.338.333.475.039 1.061.039 1.781.039h6.53c.72 0 1.305 0 1.78-.039.492-.04.93-.125 1.34-.333a3.417 3.417 0 0 0 1.493-1.494c.208-.408.293-.847.333-1.338.039-.476.039-1.061.039-1.781v-3.53c0-.72 0-1.306-.039-1.78-.04-.492-.125-.93-.333-1.34a3.417 3.417 0 0 0-1.494-1.493c-.408-.208-.847-.293-1.338-.333-.476-.039-1.061-.039-1.781-.039H5.767Zm-2.47 1.709c.161-.083.381-.143.78-.175.406-.033.93-.034 1.69-.034h6.466c.76 0 1.284 0 1.69.034.399.032.619.092.78.175.361.184.654.477.838.838.083.161.143.381.175.78.033.406.034.93.034 1.69v3.466c0 .76 0 1.284-.034 1.69-.032.399-.092.619-.175.78a1.917 1.917 0 0 1-.838.838c-.161.083-.381.143-.78.175-.406.033-.93.034-1.69.034H5.767c-.76 0-1.284 0-1.69-.034-.399-.032-.619-.092-.78-.175a1.917 1.917 0 0 1-.838-.838c-.083-.161-.143-.381-.175-.78-.033-.406-.034-.93-.034-1.69V7.267c0-.76 0-1.284.034-1.69.032-.399.092-.619.175-.78.184-.361.477-.654.838-.838Zm1.619 1.417a.75.75 0 0 0-.832 1.248l4.5 3a.75.75 0 0 0 .832 0l4.5-3a.75.75 0 1 0-.832-1.248L9 8.099 4.916 5.376Z" fill="#8FA4B3"/></svg>