<svg width="20" height="20" fill="none" xmlns="http://www.w3.org/2000/svg"><path fill-rule="evenodd" clip-rule="evenodd" d="M4.083 8.457c0-2.065.754-3.556 1.837-4.537C7.016 2.928 8.497 2.417 10 2.417c1.503 0 2.984.51 4.08 1.503 1.084.981 1.837 2.472 1.837 4.537 0 2.74-1.684 5.14-3.393 6.855-.31.312-.49.489-.693.633-.188.133-.418.253-.824.385-.165.054-.547.101-1.007.101-.46 0-.841-.047-1.006-.1-.406-.133-.637-.253-.825-.386-.202-.144-.382-.321-.693-.633-1.709-1.716-3.393-4.115-3.393-6.855Zm13.334 0c0-2.462-.914-4.366-2.33-5.649C13.683 1.538 11.83.917 10 .917c-1.83 0-3.683.62-5.087 1.891-1.416 1.283-2.33 3.187-2.33 5.649 0 3.342 2.032 6.108 3.83 7.913l.025.025c.28.282.546.548.863.773.341.243.718.423 1.228.589.398.13.974.174 1.471.174.498 0 1.074-.045 1.472-.174.51-.166.886-.346 1.228-.59.317-.224.582-.49.862-.772l.025-.025c1.799-1.805 3.83-4.57 3.83-7.913ZM8.25 8.333a1.75 1.75 0 1 1 3.5 0 1.75 1.75 0 0 1-3.5 0ZM10 5.083a3.25 3.25 0 1 0 0 6.5 3.25 3.25 0 0 0 0-6.5Z" fill="#F03E3E"/></svg>