<svg width="20" height="20" viewBox="0 0 20 20" fill="none" xmlns="http://www.w3.org/2000/svg">
<path fill-rule="evenodd" clip-rule="evenodd" d="M15.8338 1.66645C15.5409 1.37355 15.0661 1.37355 14.7732 1.66645C14.4803 1.95934 14.4803 2.43421 14.7732 2.72711C15.9955 3.94944 16.7502 5.63591 16.7502 7.50008C16.7502 11.228 13.7281 14.2501 10.0002 14.2501C8.13603 14.2501 6.44956 13.4954 5.22723 12.273C4.93434 11.9802 4.45946 11.9802 4.16657 12.273C3.87368 12.5659 3.87368 13.0408 4.16657 13.3337C5.49311 14.6603 7.27126 15.5379 9.2502 15.7164V16.7501H7.5002C7.08599 16.7501 6.7502 17.0859 6.7502 17.5001C6.7502 17.9143 7.08599 18.2501 7.5002 18.2501H10.0002H12.5002C12.9144 18.2501 13.2502 17.9143 13.2502 17.5001C13.2502 17.0859 12.9144 16.7501 12.5002 16.7501H10.7502V15.7164C14.9551 15.3375 18.2502 11.8036 18.2502 7.50008C18.2502 5.22211 17.326 3.15858 15.8338 1.66645ZM5.7502 7.50008C5.7502 5.15287 7.65299 3.25008 10.0002 3.25008C12.3474 3.25008 14.2502 5.15287 14.2502 7.50008C14.2502 9.84729 12.3474 11.7501 10.0002 11.7501C7.65299 11.7501 5.7502 9.84729 5.7502 7.50008ZM10.0002 1.75008C6.82456 1.75008 4.2502 4.32444 4.2502 7.50008C4.2502 10.6757 6.82456 13.2501 10.0002 13.2501C13.1758 13.2501 15.7502 10.6757 15.7502 7.50008C15.7502 4.32444 13.1758 1.75008 10.0002 1.75008Z" fill="#F03E3E"/>
</svg>
