<svg width="18" height="18" fill="none" xmlns="http://www.w3.org/2000/svg"><path fill-rule="evenodd" clip-rule="evenodd" d="M9.325 3.047a1.05 1.05 0 0 0-.65 0c-.073.024-.179.078-.373.243-.2.17-.443.412-.808.777L5.546 6.015c-.493.492-.649.655-.759.835a1.95 1.95 0 0 0-.233.563c-.05.205-.054.43-.054 1.126v2.891c0 .768 0 1.3.034 1.712.033.404.094.628.179.793.187.367.485.665.852.852.165.085.389.146.793.179.412.033.944.034 1.712.034h1.86c.768 0 1.3 0 1.712-.034.404-.033.628-.094.793-.178a1.95 1.95 0 0 0 .852-.853c.085-.165.146-.389.179-.793.034-.412.034-.944.034-1.712V8.54c0-.697-.005-.922-.054-1.127a1.951 1.951 0 0 0-.233-.563c-.11-.18-.266-.343-.759-.835l-1.948-1.948a15.416 15.416 0 0 0-.808-.777c-.194-.165-.3-.219-.373-.243ZM8.212 1.62a2.55 2.55 0 0 1 1.576 0c.337.11.616.301.88.526.254.215.54.5.878.839l.02.021 1.705 1.705.01.009 3.75 3.75a.75.75 0 1 1-1.061 1.06L15 8.56v2.902c0 .729 0 1.322-.04 1.802-.04.497-.126.94-.336 1.352a3.45 3.45 0 0 1-1.508 1.508c-.412.21-.855.296-1.351.337-.481.039-1.074.039-1.803.039H8.038c-.729 0-1.321 0-1.802-.04-.497-.04-.94-.126-1.352-.336a3.45 3.45 0 0 1-1.508-1.508c-.21-.412-.296-.855-.337-1.352C3 12.784 3 12.191 3 11.462V8.56l-.97.97A.75.75 0 0 1 .97 8.47l3.75-3.75a.752.752 0 0 1 .009-.01l1.704-1.704.021-.021c.339-.338.624-.624.878-.839.265-.225.543-.416.88-.526Z" fill="#F03E3E"/><path fill-rule="evenodd" clip-rule="evenodd" d="M9.788 1.62a2.55 2.55 0 0 0-1.576 0c-.337.11-.615.3-.88.526-.254.215-.54.5-.878.839l-.02.02L4.72 4.72.97 8.47a.75.75 0 1 0 1.06 1.06l3.75-3.75 1.714-1.713c.365-.366.607-.607.808-.778.194-.164.3-.218.374-.242a1.05 1.05 0 0 1 .649 0c.073.024.179.078.373.242.2.17.443.412.808.778L12.22 5.78l3.75 3.75a.75.75 0 0 0 1.06-1.06l-3.75-3.75-1.713-1.714-.021-.021c-.339-.339-.624-.624-.877-.84-.265-.224-.544-.415-.88-.525Z" fill="#F03E3E"/></svg>