<svg width="19" height="20" fill="none" xmlns="http://www.w3.org/2000/svg"><path fill-rule="evenodd" clip-rule="evenodd" d="M10.008 4.141a1.25 1.25 0 0 0-1.016 0c-.108.048-.273.174-.552.568-.277.39-.598.944-1.06 1.742l-3.158 5.455c-.464.8-.785 1.357-.987 1.793-.203.44-.23.646-.218.764.037.353.222.673.508.881.096.07.288.15.771.195.479.044 1.12.044 2.046.044h6.316c.925 0 1.567 0 2.046-.044.483-.044.675-.125.77-.195a1.25 1.25 0 0 0 .509-.881c.012-.118-.015-.324-.218-.764-.202-.436-.523-.992-.987-1.793L11.62 6.45c-.462-.798-.783-1.351-1.06-1.742-.279-.394-.444-.52-.552-.568Zm-1.625-1.37a2.75 2.75 0 0 1 2.234 0c.485.215.844.614 1.167 1.071.322.454.677 1.067 1.115 1.824l.02.033 3.157 5.455.02.033c.44.76.796 1.376 1.03 1.882.236.51.404 1.02.349 1.55a2.75 2.75 0 0 1-1.118 1.939c-.43.312-.957.423-1.516.474-.555.051-1.267.051-2.145.051H6.304c-.878 0-1.59 0-2.145-.05-.56-.052-1.085-.163-1.516-.475a2.75 2.75 0 0 1-1.118-1.94c-.055-.529.113-1.04.349-1.549.234-.506.59-1.122 1.03-1.882l.02-.033L6.081 5.7l.019-.033c.438-.757.793-1.37 1.115-1.824.323-.457.682-.856 1.167-1.071ZM9.5 6.875a.75.75 0 0 1 .75.75v3.167a.75.75 0 0 1-1.5 0V7.625a.75.75 0 0 1 .75-.75Zm0 7.083a.792.792 0 1 0 0-1.583.792.792 0 0 0 0 1.583Z" fill="#F2994A"/></svg>