<svg width="25" height="24" fill="none" xmlns="http://www.w3.org/2000/svg"><g opacity=".5" fill="#fff"><path d="M12.603 6.069c-2.963 0-5.418 2.413-5.418 5.418a5.401 5.401 0 0 0 5.418 5.418c3.006 0 5.418-2.455 5.418-5.418s-2.455-5.418-5.418-5.418Zm0 8.889a3.487 3.487 0 0 1-3.47-3.471 3.487 3.487 0 0 1 3.47-3.471 3.487 3.487 0 0 1 3.471 3.47 3.487 3.487 0 0 1-3.47 3.472Zm5.63-7.788a1.228 1.228 0 1 0 0-2.456 1.228 1.228 0 0 0 0 2.455Z"/><path d="M21.407 2.767c-1.1-1.143-2.666-1.735-4.444-1.735h-8.72c-3.682 0-6.137 2.455-6.137 6.137v8.678c0 1.82.593 3.386 1.778 4.529 1.143 1.1 2.666 1.65 4.402 1.65h8.635c1.82 0 3.344-.592 4.444-1.65 1.143-1.1 1.736-2.667 1.736-4.487v-8.72c0-1.777-.593-3.301-1.694-4.402Zm-.169 13.122c0 1.312-.465 2.37-1.227 3.09-.762.72-1.82 1.1-3.09 1.1H8.286c-1.27 0-2.328-.38-3.09-1.1-.762-.762-1.143-1.82-1.143-3.132V7.169c0-1.27.381-2.328 1.143-3.09.72-.72 1.82-1.1 3.09-1.1h8.72c1.27 0 2.328.38 3.09 1.143.719.762 1.142 1.82 1.142 3.047v8.72Z"/></g></svg>