<svg width="40" height="40" fill="none" xmlns="http://www.w3.org/2000/svg"><path d="m39.941 36.145-6.409-15.4a.781.781 0 0 0-.721-.481h-3.573c1.517-2.48 2.89-4.729 2.947-4.832a8.548 8.548 0 0 0 1.055-4.115c0-4.71-3.833-8.543-8.544-8.543-4.71 0-8.544 3.832-8.544 8.543 0 1.44.365 2.862 1.055 4.114.057.104 1.43 2.353 2.947 4.833h-3.938a.781.781 0 0 0 0 1.562h4.894l1.073 1.754H7.885a.781.781 0 0 0-.724.489L5.9 27.194a.785.785 0 0 0-.031.094c-.445 1.688-1.399 2.792-2.836 3.282a5.1 5.1 0 0 1-1.08.238l3.737-8.982h3.654a.781.781 0 0 0 0-1.562H5.167c-.315 0-.6.19-.721.48L.058 31.29a.79.79 0 0 0 .395 1.01l10.341 4.853a.79.79 0 0 0 .333.074H39.22a.789.789 0 0 0 .721-1.081ZM17.715 11.317c0-3.849 3.132-6.98 6.981-6.98a6.982 6.982 0 0 1 6.123 10.336c-.114.197-5.749 9.409-6.123 10.02-.13-.212-6.008-9.823-6.122-10.02a6.98 6.98 0 0 1-.859-3.356Zm6.315 15.28a.781.781 0 0 0 1.332 0l.89-1.454h3.463l.96 2.344h-2.752c-.662 0-1.327.15-1.924.434l-2.608 1.241a2.93 2.93 0 0 1-1.251.283h-1.095c-.643 0-1.291.143-1.875.412l-5.47 2.525H9.96l-.276-.55 1.11-2.305a.978.978 0 0 1 .877-.55h.62a2.536 2.536 0 0 0 2.322-1.517l1.017-2.317h7.51s.799 1.303.89 1.454Zm8.65 5.785H17.43l2.396-1.106c.38-.176.802-.268 1.22-.268h1.095c.66 0 1.326-.15 1.923-.435l2.608-1.241a2.93 2.93 0 0 1 1.252-.283h3.392l1.365 3.333ZM8.413 25.143h5.51l-.742 1.69a.972.972 0 0 1-.89.58h-.621c-.968 0-1.864.564-2.284 1.436l-.589 1.222-1.317-2.62.933-2.308Zm-1.707 4.248 2.708 5.387-5.842-2.741a5.636 5.636 0 0 0 3.134-2.646Zm4.902 6.272-.864-1.718h23.101a.79.79 0 0 0 .723-1.078l-3.605-8.801a.781.781 0 0 0-.723-.486h-3.031l1.073-1.754h4.008l5.759 13.837h-26.44Z" fill="#fff"/><path d="M24.695 15.274h.002a3.961 3.961 0 0 0 3.955-3.957 3.96 3.96 0 0 0-3.956-3.956 3.96 3.96 0 0 0-3.956 3.956 3.961 3.961 0 0 0 3.955 3.957Zm.001-6.35a2.396 2.396 0 0 1 2.393 2.393 2.396 2.396 0 0 1-2.402 2.394 2.397 2.397 0 0 1-2.384-2.394 2.396 2.396 0 0 1 2.393-2.393ZM12.06 21.344a.79.79 0 0 0 .78.48.79.79 0 0 0 .682-.528c.23-.674-.531-1.285-1.14-.921a.788.788 0 0 0-.321.969Z" fill="#fff"/></svg>