<svg width="32" height="32" fill="none" xmlns="http://www.w3.org/2000/svg"><path fill-rule="evenodd" clip-rule="evenodd" d="M4.583 9.333a.75.75 0 0 1 .75-.75h21.334a.75.75 0 0 1 0 1.5H5.333a.75.75 0 0 1-.75-.75Zm0 6.667a.75.75 0 0 1 .75-.75h21.334a.75.75 0 0 1 0 1.5H5.333a.75.75 0 0 1-.75-.75Zm.75 5.917a.75.75 0 0 0 0 1.5h21.334a.75.75 0 0 0 0-1.5H5.333Z" fill="#000"/><path fill-rule="evenodd" clip-rule="evenodd" d="M4.583 9.333a.75.75 0 0 1 .75-.75h21.334a.75.75 0 0 1 0 1.5H5.333a.75.75 0 0 1-.75-.75Zm0 6.667a.75.75 0 0 1 .75-.75h21.334a.75.75 0 0 1 0 1.5H5.333a.75.75 0 0 1-.75-.75Zm.75 5.917a.75.75 0 0 0 0 1.5h21.334a.75.75 0 0 0 0-1.5H5.333Z" fill="#000" fill-opacity=".2"/></svg>