<svg width="20" height="20" fill="none" xmlns="http://www.w3.org/2000/svg"><path fill-rule="evenodd" clip-rule="evenodd" d="M4.732 3.25h-.156l-.032.001c-.286.013-.598.165-.843.435-.244.269-.365.595-.35.88v.022c.168 1.659.537 3.16 1.089 4.493l1.04-.87c.601-.502.756-.645.849-.8a1.25 1.25 0 0 0 .172-.528c.016-.181-.025-.387-.215-1.146l-.365-1.46a4.276 4.276 0 0 0-.031-.123 1.25 1.25 0 0 0-1.158-.903Zm.383 7.222 1.328-1.11.084-.071c.476-.397.849-.708 1.09-1.111.21-.354.34-.75.377-1.161.043-.467-.075-.939-.226-1.54l-.027-.106-.365-1.46-.003-.012A2.75 2.75 0 0 0 4.617 1.75h-.011c-.04 0-.069 0-.128.003-.753.033-1.423.413-1.887.925-.448.493-.755 1.164-.741 1.885a.463.463 0 0 0 0 .05v.031l.001.011.001.008v.008l.001.005c.216 2.213.77 4.208 1.644 5.947a13.01 13.01 0 0 0 5.88 5.88c1.74.875 3.734 1.428 5.947 1.644h.01l.003.001h.008l.011.002h.031l.016.001h.018l.016-.001c.721.014 1.392-.293 1.885-.74.512-.465.892-1.135.925-1.888.003-.06.003-.088.003-.128v-.012c0-.067 0-.118-.002-.167a2.75 2.75 0 0 0-2.15-2.588l-.011-.003-1.46-.365a163.23 163.23 0 0 1-.107-.027c-.6-.15-1.072-.269-1.539-.226-.41.037-.807.166-1.161.378-.403.24-.714.614-1.111 1.089l-.07.084-1.11 1.328a11.445 11.445 0 0 1-4.414-4.413Zm5.804 5.088c1.334.552 2.834.921 4.493 1.088h.004l.018.001c.286.015.611-.106.88-.35.27-.245.422-.557.435-.843v-.031l.001-.03v-.127a1.25 1.25 0 0 0-.905-1.158 4.227 4.227 0 0 0-.122-.031l-1.46-.365c-.759-.19-.965-.231-1.146-.215a1.25 1.25 0 0 0-.528.172c-.155.093-.298.248-.8.848l-.87 1.041Zm4.658 2.562a.5.5 0 0 0 .072-.024.746.746 0 0 0 .481-.694.75.75 0 0 0-.17-.48c.16.534-.206 1.087-.383 1.198Zm.25-1.326a.924.924 0 0 0-.122-.074.788.788 0 0 0-.034-.016h-.003c.043.02.1.052.16.09ZM1.879 4.423c.111-.177.664-.543 1.198-.384a.75.75 0 0 0-1.198.384Zm1.326-.25c.038.058.07.116.09.16v-.004a.746.746 0 0 0-.09-.157Z" fill="#F03E3E"/></svg>