<svg width="25" height="24" fill="none" xmlns="http://www.w3.org/2000/svg"><path fill-rule="evenodd" clip-rule="evenodd" d="M5.712 2.25h.125c.332 0 .59 0 .83.042A2.75 2.75 0 0 1 8.7 3.88c.099.22.161.472.242.794l.014.058.535 2.14.027.108c.15.6.269 1.072.226 1.539a2.75 2.75 0 0 1-.378 1.161c-.24.403-.614.714-1.089 1.111l-.084.07-1.997 1.67a13.897 13.897 0 0 0 5.523 5.523l1.67-1.997.07-.084c.397-.476.708-.849 1.111-1.09.354-.21.75-.34 1.161-.377.467-.043.939.075 1.54.226l.106.027 2.14.535.06.014c.321.08.572.143.793.242a2.75 2.75 0 0 1 1.588 2.034c.042.238.042.497.042.829v.125c0 .383 0 .686-.066.983-.242 1.084-1.246 1.995-2.348 2.13-.302.038-.562.012-.885-.02l-.047-.004c-2.64-.258-5.016-.917-7.085-1.957-3.074-1.545-5.445-3.915-6.99-6.99-1.039-2.068-1.698-4.444-1.956-7.084L2.62 5.55c-.032-.323-.058-.583-.02-.885.135-1.102 1.046-2.106 2.13-2.348.297-.066.6-.066.983-.066Zm7.396 16.482c1.68.72 3.582 1.196 5.691 1.402.387.038.483.043.604.029.473-.059.963-.504 1.067-.968.026-.117.03-.244.03-.722 0-.42-.003-.537-.019-.629a1.25 1.25 0 0 0-.722-.924c-.085-.038-.197-.069-.605-.17l-2.14-.536c-.76-.19-.966-.231-1.147-.215a1.25 1.25 0 0 0-.528.172c-.155.093-.298.248-.8.848l-1.431 1.713Zm-7.59-7.59 1.713-1.431c.6-.502.755-.645.848-.8a1.25 1.25 0 0 0 .172-.528c.016-.181-.025-.387-.215-1.146l-.535-2.141c-.102-.408-.133-.52-.171-.605a1.25 1.25 0 0 0-.924-.722c-.092-.016-.208-.019-.629-.019-.478 0-.605.004-.721.03-.465.104-.91.594-.969 1.067-.015.121-.009.217.029.604.206 2.11.682 4.01 1.402 5.691Z" fill="#fff"/></svg>