<svg width="18" height="18" fill="none" xmlns="http://www.w3.org/2000/svg"><path fill-rule="evenodd" clip-rule="evenodd" d="M4.054 1.5h.168c.34 0 .651-.001.936.08.519.15.96.493 1.23.96.148.257.223.56.305.889l.018.075.442 1.767.022.086c.096.384.186.74.154 1.095a2.083 2.083 0 0 1-.287.88c-.183.306-.465.54-.769.794l-.068.057L4.7 9.442a10.22 10.22 0 0 0 3.859 3.859l1.26-1.507.056-.067c.253-.304.488-.586.794-.77.268-.16.569-.257.88-.286.356-.032.711.057 1.095.154l.086.022 1.767.442.075.018c.33.082.632.157.889.306.466.27.81.71.96 1.229.08.284.08.596.08.936v.168c0 .413.001.795-.127 1.146a2.158 2.158 0 0 1-1.432 1.3c-.362.093-.711.059-1.081.022l-.075-.007c-2-.195-3.805-.695-5.38-1.487A11.783 11.783 0 0 1 3.08 9.595c-.792-1.575-1.292-3.38-1.487-5.38a39.53 39.53 0 0 0-.007-.075c-.037-.37-.072-.72.022-1.08a2.158 2.158 0 0 1 1.3-1.433c.35-.128.733-.128 1.146-.127ZM9.95 13.974c1.183.477 2.512.797 3.98.94.49.048.561.045.633.026a.666.666 0 0 0 .401-.364c.025-.068.036-.16.036-.721 0-.466-.007-.546-.023-.6a.583.583 0 0 0-.268-.344c-.049-.028-.125-.054-.576-.167l-1.768-.442c-.524-.131-.613-.143-.68-.137a.582.582 0 0 0-.247.08c-.059.036-.124.097-.47.512L9.95 13.974ZM4.026 8.049l1.217-1.017c.415-.346.476-.411.512-.47a.583.583 0 0 0 .08-.246c.006-.068-.006-.157-.137-.68l-.442-1.769c-.113-.451-.139-.527-.167-.576a.583.583 0 0 0-.344-.268C4.69 3.007 4.61 3 4.145 3c-.562 0-.654.01-.721.036a.667.667 0 0 0-.364.4c-.019.073-.022.144.026.634.143 1.468.463 2.796.94 3.98Z" fill="#8FA4B3"/></svg>