<svg width="110" height="111" fill="none" xmlns="http://www.w3.org/2000/svg"><path d="M18.333 46.512c0-49.795 73.334-49.794 73.334 0 0 23.37-19.945 41.816-30.414 49.889-1.821 1.404-2.732 2.106-4.231 2.51-1.113.299-2.929.299-4.041 0-1.5-.404-2.41-1.106-4.232-2.51-10.47-8.073-30.416-26.519-30.416-49.889Z" fill="#F03E3E"/><circle cx="55" cy="108" r="3" fill="#F03E3E"/><path d="M39 50.5V35h9.501v10.755h22.294V66h-9.448l-.011-5.573-.016-5.578-6.407-.015-6.412-.01-.01 5.572-.016 5.578-4.735.016L39 66V50.5Z" fill="#fff"/><path d="M61.257 39.77V35h9.538v.341c0 1.057-.295 2.369-.793 3.507-1.222 2.813-3.65 4.823-6.613 5.468-.488.109-1.484.222-1.929.222h-.203V39.77Z" fill="#333"/></svg>