<svg width="18" height="18" viewBox="0 0 18 18" fill="none" xmlns="http://www.w3.org/2000/svg">
<path fill-rule="evenodd" clip-rule="evenodd" d="M3.00004 2.25C3.41425 2.25 3.75004 2.58579 3.75004 3C3.75004 3.41421 3.41425 3.75 3.00004 3.75C2.58582 3.75 2.25004 3.41421 2.25004 3C2.25004 2.58579 2.58582 2.25 3.00004 2.25ZM8.99999 3.74985H5.12206C4.89612 4.38924 4.38938 4.89601 3.75 5.12198V8.99985V12.8779C4.3893 13.1039 4.896 13.6106 5.12198 14.2498H8.99999H12.8781C13.1041 13.6106 13.6107 13.1039 14.25 12.878V8.99985V5.12194C13.6107 4.89595 13.104 4.38921 12.878 3.74985H8.99999ZM12.8781 2.24985H8.99999H5.12195C4.81304 1.37604 3.97965 0.75 3.00004 0.75C1.7574 0.75 0.750038 1.75736 0.750038 3C0.750038 3.97965 1.37613 4.81307 2.25 5.12195V8.99985V12.878C1.37613 13.1868 0.750038 14.0203 0.750038 14.9999C0.750038 16.2426 1.7574 17.2499 3.00004 17.2499C3.97973 17.2499 4.81318 16.6238 5.12203 15.7498H8.99999H12.8781C13.1869 16.6238 14.0204 17.2499 15.0001 17.2499C16.2427 17.2499 17.2501 16.2426 17.2501 14.9999C17.2501 14.0202 16.6239 13.1868 15.75 12.8779V8.99985V5.12199C16.6239 4.81314 17.2501 3.97969 17.2501 3C17.2501 1.75736 16.2427 0.75 15.0001 0.75C14.0205 0.75 13.1871 1.37604 12.8781 2.24985ZM3.75004 14.9999C3.75004 14.5857 3.41425 14.2499 3.00004 14.2499C2.58582 14.2499 2.25004 14.5857 2.25004 14.9999C2.25004 15.4141 2.58582 15.7499 3.00004 15.7499C3.41425 15.7499 3.75004 15.4141 3.75004 14.9999ZM15.0001 14.2499C15.4143 14.2499 15.7501 14.5857 15.7501 14.9999C15.7501 15.4141 15.4143 15.7499 15.0001 15.7499C14.5858 15.7499 14.2501 15.4141 14.2501 14.9999C14.2501 14.5857 14.5858 14.2499 15.0001 14.2499ZM15.7501 3C15.7501 2.58579 15.4143 2.25 15.0001 2.25C14.5858 2.25 14.2501 2.58579 14.2501 3C14.2501 3.41421 14.5858 3.75 15.0001 3.75C15.4143 3.75 15.7501 3.41421 15.7501 3Z" fill="#F03E3E"/>
</svg>
