<svg width="18" height="18" fill="none" xmlns="http://www.w3.org/2000/svg"><path fill-rule="evenodd" clip-rule="evenodd" d="M3 2.25a.75.75 0 1 1 0 1.5.75.75 0 0 1 0-1.5Zm6 1.5H5.122A2.256 2.256 0 0 1 3.75 5.122v7.756c.64.226 1.146.733 1.372 1.372h7.756a2.256 2.256 0 0 1 1.372-1.372V5.122a2.257 2.257 0 0 1-1.372-1.372H9Zm3.878-1.5H5.122A2.25 2.25 0 1 0 2.25 5.122v7.756a2.25 2.25 0 1 0 2.872 2.872h7.756a2.25 2.25 0 1 0 2.872-2.872V5.122a2.251 2.251 0 1 0-2.872-2.872ZM3.75 15a.75.75 0 1 0-1.5 0 .75.75 0 0 0 1.5 0ZM15 14.25a.75.75 0 1 1 0 1.5.75.75 0 0 1 0-1.5ZM15.75 3a.75.75 0 1 0-1.5 0 .75.75 0 0 0 1.5 0Z" fill="#F03E3E"/></svg>