<svg width="28" height="22" fill="none" xmlns="http://www.w3.org/2000/svg"><path fill-rule="evenodd" clip-rule="evenodd" d="M25.966 2.279c.819.885 1.085 2.895 1.085 2.895s.274 2.358.274 4.717v2.21c0 2.36-.273 4.718-.273 4.718s-.268 2.01-1.086 2.893c-.937 1.045-1.976 1.154-2.563 1.215l-.175.02c-3.824.293-9.566.303-9.566.303s-7.105-.07-9.29-.293a6.3 6.3 0 0 0-.371-.055c-.692-.089-1.779-.229-2.642-1.191-.82-.883-1.086-2.892-1.086-2.892S0 14.46 0 12.1V9.89a47 47 0 0 1 .273-4.717s.268-2.01 1.086-2.895c.941-1.05 1.983-1.155 2.569-1.214.061-.007.118-.012.169-.019C7.92.75 13.656.75 13.656.75h.012s5.736 0 9.56.296c.051.007.108.012.17.019.585.059 1.627.165 2.568 1.214ZM18.792 11l-8.542 5.125V5.875L18.792 11Z" fill="#F03E3E"/></svg>