<svg width="28" height="21" fill="none" xmlns="http://www.w3.org/2000/svg"><path fill-rule="evenodd" clip-rule="evenodd" d="M25.966 1.529c.819.885 1.085 2.895 1.085 2.895s.274 2.358.274 4.717v2.21c0 2.36-.273 4.718-.273 4.718s-.268 2.01-1.086 2.893c-.937 1.045-1.976 1.154-2.563 1.215l-.175.02c-3.824.293-9.566.303-9.566.303s-7.105-.07-9.29-.293a6.3 6.3 0 0 0-.371-.055c-.692-.089-1.779-.229-2.642-1.191-.82-.883-1.086-2.892-1.086-2.892S0 13.71 0 11.35V9.14a47 47 0 0 1 .273-4.717s.268-2.01 1.086-2.895C2.3.479 3.342.374 3.928.315a8.16 8.16 0 0 0 .169-.019C7.92 0 13.656 0 13.656 0h.012s5.736 0 9.56.296c.051.007.108.012.17.019.585.059 1.627.165 2.568 1.214Zm-7.174 8.721-8.542 5.125V5.125l8.542 5.125Z" fill="#fff" opacity=".5"/></svg>